<?xml version="1.0" encoding="utf-8"?>
<!-- Generator: Adobe Illustrator 16.0.0, SVG Export Plug-In . SVG Version: 6.00 Build 0)  -->
<!DOCTYPE svg PUBLIC "-//W3C//DTD SVG 1.1//EN" "http://www.w3.org/Graphics/SVG/1.1/DTD/svg11.dtd">
<svg version="1.1" id="Layer_1" xmlns="http://www.w3.org/2000/svg" xmlns:xlink="http://www.w3.org/1999/xlink" x="0px" y="0px"
	 width="500px" height="500px" viewBox="0 0 500 500" enable-background="new 0 0 500 500" xml:space="preserve">
<g>
	<g>
		<polygon fill="#F2F2F2" points="314.717,25.692 88.962,25.692 88.962,423.794 396.385,423.794 396.385,115.654 		"/>
		<path fill="#4D4D4D" d="M399.702,427.111H85.645V22.375h230.541l83.517,91.998V427.111z M92.279,420.477h300.788V116.935
			L313.248,29.01H92.279V420.477z"/>
	</g>
</g>
<g>
	<rect x="309.023" y="25.692" fill="#4D4D4D" width="6.635" height="95.102"/>
</g>
<g>
	<rect x="308.954" y="117.477" fill="#4D4D4D" width="87.431" height="6.635"/>
</g>
<g>
	<circle fill="#39B54A" cx="134.025" cy="80.708" r="14.652"/>
	<path fill="#4D4D4D" d="M134.025,98.678c-9.908,0-17.97-8.062-17.97-17.97s8.062-17.97,17.97-17.97s17.97,8.062,17.97,17.97
		S143.933,98.678,134.025,98.678z M134.025,69.373c-6.25,0-11.335,5.084-11.335,11.335s5.084,11.334,11.335,11.334
		s11.334-5.084,11.334-11.334S140.275,69.373,134.025,69.373z"/>
</g>
<g>
	<rect x="159.735" y="62.185" fill="#4D4D4D" width="42.022" height="6.635"/>
</g>
<g>
	<rect x="159.735" y="77.667" fill="#4D4D4D" width="53.08" height="6.635"/>
</g>
<g>
	<rect x="159.735" y="93.148" fill="#4D4D4D" width="42.022" height="6.635"/>
</g>
<g>
	<rect x="15.977" y="229.167" fill="#F2F2F2" width="201.262" height="103.949"/>
	<path fill="#4D4D4D" d="M220.557,336.433H12.659V225.849h207.897V336.433z M19.294,329.798h194.627v-97.314H19.294V329.798z"/>
</g>
<g>
	<rect x="148.677" y="375.137" fill="#08C5FF" width="176.934" height="97.313"/>
	<path fill="#4D4D4D" d="M328.929,475.768H145.359V371.819h183.569V475.768z M151.995,469.133h170.298v-90.679H151.995V469.133z"/>
</g>
<g>
	<circle fill="#F2F2F2" cx="189.87" cy="424.07" r="15.758"/>
	<path fill="#4D4D4D" d="M189.87,443.146c-10.519,0-19.076-8.557-19.076-19.075s8.557-19.076,19.076-19.076
		c10.518,0,19.076,8.558,19.076,19.076S200.388,443.146,189.87,443.146z M189.87,411.629c-6.86,0-12.441,5.581-12.441,12.441
		c0,6.859,5.581,12.44,12.441,12.44c6.859,0,12.44-5.581,12.44-12.44C202.31,417.21,196.729,411.629,189.87,411.629z"/>
</g>
<g>
	<line fill="#FFFFFF" x1="230.509" y1="403.889" x2="257.049" y2="403.889"/>
	<rect x="230.509" y="400.571" fill="#4D4D4D" width="26.54" height="6.635"/>
</g>
<g>
	<line fill="#FFFFFF" x1="230.509" y1="423.794" x2="281.378" y2="423.794"/>
	<rect x="230.509" y="420.477" fill="#4D4D4D" width="50.869" height="6.635"/>
</g>
<g>
	<line fill="#FFFFFF" x1="230.509" y1="439.275" x2="250.414" y2="439.275"/>
	<rect x="230.509" y="435.958" fill="#4D4D4D" width="19.905" height="6.635"/>
</g>
<g>
	<g>
		<path fill="#F7931E" d="M483.75,270.454c0,40.916-33.175,74.091-74.096,74.091c-40.916,0-74.091-33.175-74.091-74.091
			c0-40.923,33.175-74.093,74.091-74.093C450.575,196.361,483.75,229.531,483.75,270.454z"/>
		<path fill="#4D4D4D" d="M409.654,347.862c-42.683,0-77.408-34.725-77.408-77.408c0-42.685,34.726-77.411,77.408-77.411
			c42.687,0,77.413,34.726,77.413,77.411C487.067,313.138,452.341,347.862,409.654,347.862z M409.654,199.678
			c-39.024,0-70.773,31.75-70.773,70.776c0,39.024,31.749,70.773,70.773,70.773c39.027,0,70.778-31.749,70.778-70.773
			C480.433,231.428,448.682,199.678,409.654,199.678z"/>
	</g>
	<g>
		<circle fill="#FFFFFF" cx="409.652" cy="270.449" r="15.877"/>
		<path fill="#4D4D4D" d="M409.654,289.644c-10.585,0-19.196-8.609-19.196-19.194c0-10.584,8.611-19.194,19.196-19.194
			c10.583,0,19.192,8.61,19.192,19.194C428.847,281.034,420.237,289.644,409.654,289.644z M409.654,257.89
			c-6.927,0-12.562,5.635-12.562,12.56c0,6.926,5.635,12.56,12.562,12.56c6.925,0,12.558-5.634,12.558-12.56
			C422.212,263.524,416.579,257.89,409.654,257.89z"/>
	</g>
</g>
<g>
	<polygon fill="#08C5FF" points="116.357,229.167 209.589,229.167 119.277,272.087 70.344,249.81 24.335,229.167 	"/>
	<path fill="#4D4D4D" d="M119.308,275.745l-50.338-22.916l-60.132-26.98h215.461L119.308,275.745z M39.833,232.484l31.87,14.299
		l47.544,21.645l75.632-35.944H39.833z"/>
</g>
</svg>
