<?xml version="1.0" encoding="utf-8"?>
<!-- Generator: Adobe Illustrator 16.0.0, SVG Export Plug-In . SVG Version: 6.00 Build 0)  -->
<!DOCTYPE svg PUBLIC "-//W3C//DTD SVG 1.1//EN" "http://www.w3.org/Graphics/SVG/1.1/DTD/svg11.dtd">
<svg version="1.1" id="Layer_1" xmlns="http://www.w3.org/2000/svg" xmlns:xlink="http://www.w3.org/1999/xlink" x="0px" y="0px"
	 width="686.912px" height="437.684px" viewBox="0 0 686.912 437.684" enable-background="new 0 0 686.912 437.684"
	 xml:space="preserve">
<g>
	<path fill-rule="evenodd" clip-rule="evenodd" fill="#53B848" d="M391.755,154.016l-27.74,11.965
		c-50.739-57.432-144.574-71.861-197.983-34.81C220.968,68.407,356.59,53.177,391.755,154.016L391.755,154.016L391.755,154.016z"/>
	<path fill-rule="evenodd" clip-rule="evenodd" fill="#53B848" d="M344.079,174.126l-12.756,6.204
		c-10.494-21.419-22.578-32.215-33.745-42.831C321.508,148.969,329.605,154.431,344.079,174.126L344.079,174.126L344.079,174.126z"
		/>
	<g>
		<defs>
			<rect id="SVGID_1_" x="23.155" y="30.544" width="639.88" height="382"/>
		</defs>
		<clipPath id="SVGID_2_">
			<use xlink:href="#SVGID_1_"  overflow="visible"/>
		</clipPath>
		<path clip-path="url(#SVGID_2_)" fill-rule="evenodd" clip-rule="evenodd" fill="#53B848" d="M392.603,287.949l-46.436-18.104
			c-10.329,75.616-47.717,106.345-78.766,129.322C309.998,394.02,381.408,344.739,392.603,287.949L392.603,287.949L392.603,287.949z
			"/>
		<path clip-path="url(#SVGID_2_)" fill-rule="evenodd" clip-rule="evenodd" fill="#53B848" d="M295.549,58.947
			c9.594-5.324-199.338,5.163-177.873,196.597C48.656,64.005,200.079,14.893,295.549,58.947L295.549,58.947L295.549,58.947z"/>
		<path clip-path="url(#SVGID_2_)" fill-rule="evenodd" clip-rule="evenodd" fill="#53B848" d="M89.49,107.87
			C79.036,146.8,52.264,303.641,220.908,338.617C20.825,340.128,17.167,194.248,89.49,107.87L89.49,107.87L89.49,107.87z"/>
		<path clip-path="url(#SVGID_2_)" fill-rule="evenodd" clip-rule="evenodd" fill="#53B848" d="M72.393,317.765
			c19.085,26.224,184.903,93.808,258.201-51.409C292.882,434.938,135.867,429.649,72.393,317.765L72.393,317.765L72.393,317.765z"/>
	</g>
	<path fill="#253E93" d="M259.181,241.264c-6.875,11.497-19.612,19.95-35.842,19.95c-24.008,0-41.478-17.583-41.478-40.238
		c0-21.303,17.47-39.11,41.478-39.11c16.343,0,29.192,7.664,36.068,19.161l-15.667,9.13c-3.607-6.989-10.708-11.61-20.401-11.61
		c-13.413,0-22.768,9.806-22.768,22.43c0,12.173,9.355,22.881,22.768,22.881c9.468,0,16.456-4.847,20.175-11.609L259.181,241.264
		L259.181,241.264z"/>
	<polygon fill="#253E93" points="330.308,183.217 330.308,200.35 290.07,200.35 290.07,213.537 323.658,213.537 323.658,229.542 
		290.07,229.542 290.07,242.729 330.308,242.729 330.308,259.862 271.584,259.862 271.584,183.217 330.308,183.217 	"/>
	<path fill="#253E93" d="M363.794,200.35v23.331h15.887c6.312,0,11.378-5.297,11.378-11.722c0-6.313-5.066-11.609-11.271-11.609
		H363.794L363.794,200.35z M409.663,211.959c0,11.046-5.41,20.401-13.643,24.797l15.779,23.106h-22.993l-11.486-19.05h-13.525v19.05
		H345.31v-76.646h37.077C397.941,183.217,409.663,195.278,409.663,211.959L409.663,211.959z"/>
	<polygon fill="#253E93" points="443.477,259.862 424.992,259.862 424.992,183.217 443.477,183.217 443.477,259.862 	"/>
	<path fill="#253E93" d="M530.727,220.525c0,25.359-16.006,40.688-37.421,40.688c-21.758,0-36.518-15.329-36.518-40.688v-37.309
		h18.484v37.309c0,14.765,6.312,23.557,18.034,23.557c11.497,0,18.711-8.792,18.711-23.557v-37.309h18.71V220.525L530.727,220.525z"
		/>
	<polygon fill="#253E93" points="638.48,259.862 619.877,259.862 619.877,220.751 601.51,259.862 580.889,259.862 562.512,220.751 
		562.512,259.862 544.027,259.862 544.027,183.217 564.541,183.217 591.258,239.461 617.859,183.217 638.48,183.217 638.48,259.862 
			"/>
</g>
</svg>
