<?xml version="1.0" encoding="utf-8"?>
<!-- Generator: Adobe Illustrator 16.0.0, SVG Export Plug-In . SVG Version: 6.00 Build 0)  -->
<!DOCTYPE svg PUBLIC "-//W3C//DTD SVG 1.1//EN" "http://www.w3.org/Graphics/SVG/1.1/DTD/svg11.dtd">
<svg version="1.1" id="Layer_1" xmlns="http://www.w3.org/2000/svg" xmlns:xlink="http://www.w3.org/1999/xlink" x="0px" y="0px"
	 width="502.475px" height="173.793px" viewBox="0 0 502.475 173.793" enable-background="new 0 0 502.475 173.793"
	 xml:space="preserve">
<path fill-rule="evenodd" clip-rule="evenodd" fill="#333333" d="M134.063,12.979c9.777-1.088,17.104,6.408,17.104,15.14
	c0,20.462-30.555,19.448-30.851,0.285C120.189,19.588,125.764,13.908,134.063,12.979z"/>
<path fill-rule="evenodd" clip-rule="evenodd" fill="#F68124" d="M120.315,28.404c0.296,19.163,30.851,20.177,30.851-0.285
	c0-8.731-7.327-16.228-17.104-15.14C125.764,13.908,120.189,19.588,120.315,28.404z"/>
<path fill-rule="evenodd" clip-rule="evenodd" fill="#333333" d="M160.69,56.162c0,31.041,0,62.062,0,93.092
	c7.581,0,15.162,0,22.722,0c0.19-23.83-0.38-48.409,0.274-71.785c11.128,0.739,15.457,9.439,21.306,16.271
	c9.65,11.244,18.097,21.021,27.494,31.959c4.625,5.406,9.059,11.435,14.021,15.711c10.643,9.165,26.712,8.214,47.66,7.845
	c0-31.305,0-62.621,0-93.937c-7.561,0-15.142,0-22.722,0c-0.169,23.841,0.38,48.42-0.274,71.796
	c-9.714-0.274-14.972-8.563-20.188-14.592C240.151,100,229.656,87.836,218.739,75.23c-5.195-5.997-11.107-13.43-18.224-16.83
	c-10.051-4.793-24.643-2.555-39.53-3.083C160.648,55.37,160.669,55.76,160.69,56.162z"/>
<path fill-rule="evenodd" clip-rule="evenodd" fill="#4D4D4D" d="M160.986,55.317c14.887,0.528,29.479-1.71,39.53,3.083
	c7.116,3.4,13.029,10.833,18.224,16.83c10.917,12.606,21.412,24.77,32.245,37.291c5.216,6.029,10.474,14.317,20.188,14.592
	c0.654-23.376,0.105-47.955,0.274-71.796c7.58,0,15.161,0,22.722,0c0,31.315,0,62.632,0,93.937
	c-20.948,0.369-37.018,1.32-47.66-7.845c-4.962-4.276-9.397-10.305-14.021-15.711c-9.396-10.938-17.843-20.715-27.494-31.959
	c-5.849-6.831-10.178-15.531-21.306-16.271c-0.655,23.376-0.084,47.955-0.274,71.785c-7.56,0-15.141,0-22.722,0
	c0-31.03,0-62.051,0-93.092C160.669,55.76,160.648,55.37,160.986,55.317z"/>
<path fill="#4D4D4D" d="M393.397,55.207c-13.251,0-26.741,0-40.562,0c-17.21,0-34.525-1.222-42.613,7.351
	c-7.201,7.612-5.342,24.703-5.342,40.127c0,15.743-1.437,32.7,5.891,39.806c6.758,6.567,17.168,6.716,31.126,6.716
	c32.118,0,64.5,0,94.5,0c0-7,0-15,0-22c-29,0-63.417,0-94.226,0c-4.666,0-10.938,0.338-12.606-1.256
	c-2.745-2.607-0.253-9.744-1.119-12.744c35.792,0,71.951,0,106.951,0c0-7,0-14.601,0-21.991c-35-0.19-71.942,0.38-107.164-0.285
	c0.907-2.988-1.478-9.359,0.951-12.188c1.499-1.764,7.519-1.535,12.143-1.535c31.506,0,65.07,0,95.07,0c0-1,0-1.913,0-3h-43V55.207z
	"/>
<path fill="#333333" d="M430.561,55.207h4.572C433.684,55.115,432.148,55.137,430.561,55.207z"/>
<path fill="#F68124" d="M488.254,100.464c-12.647-17.483-32.685-28.083-51.857-38.135v7.009v0.002
	c17.019,8.393,34.691,19.32,44.847,35.611c1.457,2.312,2.746,5.543,5.343,6.176c2.534,0.592,5.174-0.507,5.596-2.533
	C492.52,107,489.796,102.597,488.254,100.464z"/>
<path opacity="0.4" fill="#B3B3B3" d="M430.561,55.207h-14.123c0.204,0.04,0.41,0.083,0.612,0.11
	C421.408,55.936,426.175,55.399,430.561,55.207z"/>
<path opacity="0.4" fill="#B3B3B3" d="M436.397,55.207h-1.264c0.427,0.027,1.264,0.062,1.264,0.11V55.207z"/>
<path fill="#333333" d="M436.397,62.33c-0.001,0,0-0.001,0-0.002v-7.011c0-0.049-0.837-0.083-1.264-0.11h-4.572
	c-4.386,0.192-9.153,0.729-13.511,0.11c-0.202-0.028-0.408-0.071-0.612-0.11h-20.694c-0.141,0-0.284,0.037-0.425,0h-1.922v19h43
	V69.34v-0.002V62.33z"/>
<path fill="#4D4D4D" d="M436.397,62.33c-0.001,0,0-0.001,0-0.002v-7.011c0-0.049-0.837-0.083-1.264-0.11h-4.572
	c-4.386,0.192-9.153,0.729-13.511,0.11c-0.202-0.028-0.408-0.071-0.612-0.11h-20.694c-0.141,0-0.284,0.037-0.425,0h-1.922v19h43
	V69.34v-0.002V62.33z"/>
<path fill="#333333" d="M395.744,55.207h-0.425C395.459,55.244,395.603,55.207,395.744,55.207z"/>
<path opacity="0.4" fill="#B3B3B3" d="M395.744,55.207h-0.425C395.459,55.244,395.603,55.207,395.744,55.207z"/>
<path fill="#F68124" d="M84.488,82.8C77.92,62.644,62.463,51.358,41.6,45.508c-0.295,0.011-0.232,0.359,0.275,0.285
	c12.543,6.694,22.742,15.542,30.555,27.473c1.352,2.069,6.736,10.347,6.166,13.177c-0.359,1.858-6.377,4.941-8.404,6.451
	c-19.448,14.454-39.002,33.205-45.421,58.038c3.822-0.929,7.876-1.657,11.487-2.798c8.573-24.97,23.925-44.249,43.458-57.204
	c3.463,19.521-2.09,37.523-8.404,51.027c-0.929,2.006-2.809,4.751-2.809,6.177c0,3.495,4.16,8.288,4.772,11.213
	c6.926-7.528,9.144-20.24,11.508-32.805c2.281-12.3,3.962-27.398,0.668-40.1c11.931-8.911,24.945-16.429,39.945-22.426V60.95
	C110.84,67.323,97.211,74.592,84.488,82.8z"/>
<path fill="#4D4D4D" d="M125.397,149.207c8,0,16,0,24,0c0-19.89,0-39.938,0-60h-24C125.397,109.326,125.397,129.459,125.397,149.207
	z"/>
<path fill="#F68124" d="M409.469,53.079c-18.35-4.688-37.925-7.834-58.049-10.653c-62.737-8.795-142.578-7.147-197.101,8.13
	c-4.778,1.347-9.575,3.868-14.262,4.651h9.339v0.396c67-20.694,176.825-18.663,245.922-0.396h0.425h20.694
	C414.167,54.767,411.774,53.67,409.469,53.079z"/>
<path fill="#B3B3B3" d="M125.707,55.317c4.033-0.454,9.291,0.612,13.747,0c0.201-0.027,0.403-0.077,0.604-0.11h-14.661v5.744
	c0.012-0.005,0.023-0.011,0.036-0.016C126.045,59.572,125.559,57.133,125.707,55.317z"/>
<path fill="#4D4D4D" d="M140.058,55.207c-0.201,0.034-0.403,0.083-0.604,0.11c-4.456,0.612-9.713-0.454-13.747,0
	c-0.148,1.816,0.338,4.255-0.274,5.617c-0.012,0.005-0.024,0.011-0.036,0.016v3.067c0,8.375,0,16.781,0,25.189h24
	c0-11.206,0-22.415,0-33.604v-0.396H140.058z"/>
</svg>
