<?xml version="1.0" encoding="utf-8"?>
<!-- Generator: Adobe Illustrator 16.0.0, SVG Export Plug-In . SVG Version: 6.00 Build 0)  -->
<!DOCTYPE svg PUBLIC "-//W3C//DTD SVG 1.1//EN" "http://www.w3.org/Graphics/SVG/1.1/DTD/svg11.dtd">
<svg version="1.1" id="Layer_1" xmlns="http://www.w3.org/2000/svg" xmlns:xlink="http://www.w3.org/1999/xlink" x="0px" y="0px"
	 width="150px" height="150px" viewBox="0 0 150 150" enable-background="new 0 0 150 150" xml:space="preserve">
<path display="none" fill="#F24033" d="M75.009,150.142C33.648,150.142,0,116.492,0,75.132C0,33.773,33.648,0.125,75.009,0.125
	c41.359,0,75.008,33.648,75.008,75.007C150.017,116.492,116.368,150.142,75.009,150.142 M75.009,5.827
	c-38.215,0-69.307,31.089-69.307,69.306c0,38.215,31.091,69.307,69.307,69.307c38.215,0,69.306-31.092,69.306-69.307
	C144.314,36.916,113.224,5.827,75.009,5.827"/>
<path display="none" fill="#F24033" d="M60.414,69.682v9.664c0,0,9.358-0.012,13.169-0.012c-2.064,6.267-5.272,9.678-13.169,9.678
	c-7.992,0-14.229-6.492-14.229-14.498c0-8.005,6.237-14.496,14.229-14.496c4.226,0,6.955,1.488,9.457,3.562
	c2.003-2.006,1.836-2.294,6.936-7.116c-4.327-3.945-10.082-6.351-16.393-6.351c-13.452,0-24.36,10.924-24.36,24.401
	c0,13.479,10.908,24.403,24.36,24.403c20.106,0,25.022-17.541,23.395-29.235H60.414z"/>
<polygon display="none" fill="#F24033" points="104.309,70.165 104.309,61.71 98.28,61.71 98.28,70.165 89.596,70.165 
	89.596,76.207 98.28,76.207 98.28,84.903 104.309,84.903 104.309,76.207 112.75,76.207 112.75,70.165 "/>
<g display="none">
	<path display="inline" fill="#1A70F9" d="M69.807,73.112c1.443-0.727,2.535-1.533,3.28-2.413c1.329-1.574,1.988-3.658,1.988-6.245
		c0-2.514-0.659-4.669-1.971-6.473c-2.189-2.937-5.897-4.441-11.141-4.519H41.192v42.403h19.369c2.183,0,4.203-0.185,6.071-0.567
		c1.872-0.39,3.484-1.096,4.856-2.132c1.218-0.904,2.232-2.017,3.042-3.337c1.28-1.992,1.919-4.247,1.919-6.761
		c0-2.436-0.561-4.512-1.673-6.216C73.651,75.15,71.999,73.902,69.807,73.112 M49.759,60.826h9.358c2.057,0,3.75,0.223,5.083,0.664
		c1.539,0.634,2.308,1.939,2.308,3.919c0,1.777-0.586,3.019-1.747,3.72c-1.17,0.703-2.687,1.054-4.548,1.054H49.759V60.826z
		 M64.552,87.761c-1.035,0.497-2.491,0.746-4.355,0.746H49.759V77.199h10.585c1.84,0.018,3.275,0.26,4.296,0.718
		c1.829,0.829,2.737,2.342,2.737,4.552C67.377,85.076,66.436,86.833,64.552,87.761"/>
	<rect x="85.636" y="55.441" display="inline" fill="#1A70F9" width="18.421" height="5.278"/>
	<path display="inline" fill="#1A70F9" d="M107.923,69.788c-1.439-2.111-3.267-3.662-5.49-4.641
		c-2.217-0.979-4.707-1.473-7.476-1.473c-4.657,0-8.44,1.458-11.364,4.351c-2.916,2.899-4.375,7.067-4.375,12.5
		c0,5.797,1.61,9.983,4.853,12.553c3.228,2.576,6.96,3.856,11.193,3.856c5.124,0,9.111-1.523,11.958-4.567
		c1.825-1.924,2.854-3.815,3.08-5.67h-8.485c-0.491,0.919-1.063,1.638-1.716,2.157c-1.178,0.957-2.721,1.438-4.607,1.438
		c-1.789,0-3.316-0.396-4.583-1.183c-2.094-1.264-3.19-3.47-3.331-6.615h23.161c0.035-2.703-0.053-4.787-0.28-6.222
		C110.076,73.815,109.235,71.651,107.923,69.788 M87.784,77.086c0.302-2.042,1.042-3.659,2.215-4.853
		c1.176-1.194,2.838-1.792,4.962-1.792c1.965,0,3.605,0.562,4.936,1.685c1.317,1.137,2.063,2.781,2.214,4.96H87.784z"/>
	<path display="inline" fill="#1A70F9" d="M74.936,149.996C33.616,149.996,0,116.379,0,75.06S33.616,0.125,74.936,0.125
		c41.319,0,74.935,33.615,74.935,74.935S116.255,149.996,74.936,149.996 M74.936,5.821C36.757,5.821,5.697,36.88,5.697,75.06
		c0,38.178,31.061,69.24,69.239,69.24c38.178,0,69.238-31.063,69.238-69.24C144.174,36.88,113.113,5.821,74.936,5.821"/>
</g>
<g>
	<rect x="42.968" y="64.075" fill="#187FB8" width="13.658" height="43.281"/>
	<path fill="#187FB8" d="M93.948,63.658c-7.825,0-12.729,4.238-13.634,7.208v-6.791H64.968c0.198,3.606,0,43.28,0,43.28h15.347
		V83.934c0-1.299-0.063-2.602,0.332-3.536c1.056-2.604,3.322-5.304,7.396-5.304c5.328,0,7.752,4.001,7.752,9.864v22.397h15.489
		V83.288C111.284,69.884,103.657,63.658,93.948,63.658"/>
	<path fill="#187FB8" d="M49.545,43.644c-5.044,0-8.345,3.238-8.345,7.516c0,4.192,3.206,7.501,8.15,7.501h0.1
		c5.135,0,8.332-3.321,8.332-7.516C57.684,46.875,54.585,43.644,49.545,43.644"/>
	<path fill="#187FB8" d="M74.977,149.954C33.634,149.954,0,116.318,0,74.976S33.634,0,74.977,0
		c41.345,0,74.978,33.634,74.978,74.976S116.321,149.954,74.977,149.954 M74.977,5.699C36.779,5.699,5.7,36.776,5.7,74.976
		c0,38.2,31.079,69.279,69.277,69.279c38.2,0,69.278-31.079,69.278-69.279C144.255,36.776,113.177,5.699,74.977,5.699"/>
</g>
<g display="none">
	<path display="inline" fill="#24A9E6" d="M107.67,46.003c-2.822,1.712-5.941,2.959-9.274,3.626
		c-2.653-2.908-6.447-4.722-10.647-4.722c-8.052,0-14.587,6.699-14.587,14.962c0,1.172,0.126,2.311,0.376,3.404
		c-12.126-0.623-22.876-6.572-30.077-15.636c-1.257,2.218-1.975,4.792-1.975,7.533c0,5.187,2.576,9.765,6.49,12.451
		c-2.387-0.074-4.642-0.753-6.611-1.866v0.182c0,7.253,5.029,13.304,11.71,14.672c-1.224,0.353-2.515,0.527-3.846,0.527
		c-0.94,0-1.858-0.089-2.749-0.266c1.86,5.941,7.245,10.27,13.632,10.387c-4.994,4.013-11.288,6.405-18.123,6.405
		c-1.176,0-2.34-0.066-3.481-0.204c6.457,4.239,14.131,6.717,22.366,6.717c26.842,0,41.517-22.795,41.517-42.57
		c0-0.649-0.012-1.3-0.039-1.938c2.852-2.112,5.329-4.744,7.276-7.742c-2.612,1.19-5.426,1.992-8.378,2.353
		C104.267,52.43,106.579,49.496,107.67,46.003"/>
	<path display="inline" fill="#24A9E6" d="M74.943,149.887C33.619,149.887,0,116.267,0,74.943C0,33.619,33.619,0,74.943,0
		c41.325,0,74.941,33.619,74.941,74.943C149.885,116.267,116.269,149.887,74.943,149.887 M74.943,5.697
		c-38.181,0-69.246,31.063-69.246,69.246c0,38.182,31.065,69.248,69.246,69.248c38.183,0,69.246-31.065,69.246-69.248
		C144.189,36.759,113.126,5.697,74.943,5.697"/>
</g>
<g display="none">
	<path display="inline" fill="#24A9E6" d="M75.002,149.433c-41.199,0-74.716-33.518-74.716-74.716C0.286,33.517,33.803,0,75.002,0
		c41.2,0,74.716,33.517,74.716,74.716C149.718,115.915,116.202,149.433,75.002,149.433 M75.002,5.68
		c-38.065,0-69.036,30.968-69.036,69.037c0,38.067,30.971,69.038,69.036,69.038c38.066,0,69.036-30.971,69.036-69.038
		C144.038,36.648,113.068,5.68,75.002,5.68"/>
	<g display="inline">
		<g>
			<defs>
				<rect id="SVGID_1_" x="34.387" y="40.776" width="83.736" height="73.277"/>
			</defs>
			<clipPath id="SVGID_2_">
				<use xlink:href="#SVGID_1_"  overflow="visible"/>
			</clipPath>
			<path clip-path="url(#SVGID_2_)" fill="#00AAF2" d="M114.712,83.65c-1.327-1.834-1.942-4.075-1.939-6.342
				c0-0.013,0-0.026,0-0.039c0-20.178-16.358-36.534-36.534-36.534c-4.417,0-8.643,0.785-12.561,2.222
				c-2.117,0.776-4.439,0.924-6.611,0.313c-1.919-0.54-3.969-0.77-6.092-0.623c-8.918,0.614-16.101,7.924-16.563,16.853
				c-0.22,4.262,1.058,8.215,3.354,11.385c1.326,1.838,1.941,4.079,1.939,6.345v0.039c0,20.176,16.354,36.534,36.532,36.534
				c4.415,0,8.646-0.787,12.563-2.222c2.116-0.777,4.438-0.927,6.609-0.314c1.921,0.541,3.969,0.769,6.094,0.623
				c8.918-0.614,16.097-7.924,16.563-16.853C118.286,90.775,117.009,86.822,114.712,83.65L114.712,83.65z M77.577,70.719
				c7.363,1.753,18.497,4.398,18.497,16.662c0,6.038-2.975,10.649-8.377,12.975c-3.854,1.66-8.216,1.884-11.977,1.884
				c-11.551,0-18.848-8.983-19.153-9.365c-1.893-2.372-1.503-5.83,0.869-7.723c2.374-1.894,5.833-1.503,7.725,0.869
				c0.017,0.021,4.38,5.032,10.56,5.228c7.441,0.237,9.143-1.978,9.362-3.867c0.271-2.31-1.784-4.003-10.052-5.97
				c-7.005-1.666-17.595-4.184-17.595-15.478c0-3.517,1.429-14.991,19.836-14.991c11.621,0,18.48,9.149,18.767,9.539
				c1.797,2.446,1.272,5.886-1.172,7.682c-2.434,1.791-5.854,1.28-7.656-1.137c-0.131-0.166-4.056-4.535-9.938-5.093
				c-4.452-0.423-8.847,1.182-8.847,3.553C68.426,67.998,69.687,68.843,77.577,70.719L77.577,70.719z M77.577,70.719"/>
		</g>
	</g>
</g>
</svg>
