<?xml version="1.0" encoding="utf-8"?>
<!-- Generator: Adobe Illustrator 16.0.0, SVG Export Plug-In . SVG Version: 6.00 Build 0)  -->
<!DOCTYPE svg PUBLIC "-//W3C//DTD SVG 1.1//EN" "http://www.w3.org/Graphics/SVG/1.1/DTD/svg11.dtd">
<svg version="1.1" id="Layer_1" xmlns="http://www.w3.org/2000/svg" xmlns:xlink="http://www.w3.org/1999/xlink" x="0px" y="0px"
	 width="250px" height="50px" viewBox="0 0 250 50" enable-background="new 0 0 250 50" xml:space="preserve">
<g>
	<path fill="#676767" d="M27.119,32.423c0,2.805-1.031,5.025-3.092,6.666c-2.06,1.639-4.8,2.459-8.217,2.459
		c-4.107,0-7.255-0.451-9.447-1.357v-2.344c2.422,1.027,5.509,1.54,9.263,1.54c2.758,0,4.945-0.632,6.562-1.897
		c1.617-1.263,2.425-2.921,2.425-4.975c0-1.272-0.269-2.326-0.805-3.161c-0.537-0.835-1.409-1.598-2.62-2.286
		c-1.211-0.69-2.987-1.433-5.333-2.229c-3.432-1.181-5.803-2.457-7.114-3.828c-1.31-1.371-1.964-3.198-1.964-5.48
		c0-2.513,0.984-4.563,2.953-6.149C11.699,7.793,14.232,7,17.327,7c3.156,0,6.122,0.599,8.896,1.793l-0.851,2.023
		c-2.789-1.164-5.456-1.748-7.999-1.748c-2.483,0-4.459,0.574-5.93,1.724c-1.471,1.149-2.207,2.712-2.207,4.69
		c0,1.24,0.226,2.261,0.678,3.058c0.452,0.796,1.191,1.513,2.218,2.149s2.789,1.397,5.287,2.287c2.621,0.903,4.589,1.78,5.907,2.63
		s2.279,1.817,2.884,2.897C26.815,29.584,27.119,30.89,27.119,32.423z"/>
	<path fill="#676767" d="M34.221,41.089V7.483h2.345v31.398h16.02v2.207H34.221z"/>
	<path fill="#676767" d="M58.378,41.089V7.483h2.345v33.605H58.378z"/>
	<path fill="#676767" d="M85.018,41.089L72.491,10.057h-0.184c0.123,1.901,0.184,3.847,0.184,5.839v25.192h-2.252V7.483h3.632
		l11.906,29.559h0.137L97.82,7.483h3.54v33.605h-2.367V15.62c0-1.777,0.091-3.617,0.276-5.516h-0.185L86.512,41.089H85.018z"/>
	<path fill="#676767" d="M110.323,7.483h10.459c4.767,0,8.225,0.679,10.378,2.035c2.152,1.356,3.23,3.513,3.23,6.47
		c0,2.007-0.473,3.654-1.414,4.941c-0.942,1.287-2.195,2.062-3.759,2.321v0.231c2.13,0.474,3.666,1.364,4.608,2.666
		s1.414,3.033,1.414,5.193c0,3.064-1.106,5.457-3.321,7.174c-2.215,1.715-5.222,2.574-9.022,2.574h-12.574V7.483z M117.449,20.792
		h4.139c1.93,0,3.329-0.298,4.194-0.896c0.865-0.598,1.299-1.587,1.299-2.966c0-1.287-0.472-2.21-1.414-2.77
		c-0.942-0.558-2.432-0.837-4.47-0.837h-3.748V20.792z M117.449,26.445v8.758h4.644c1.961,0,3.409-0.376,4.344-1.125
		c0.935-0.752,1.402-1.901,1.402-3.448c0-2.788-1.992-4.185-5.975-4.185H117.449z"/>
	<path fill="#676767" d="M149.078,28.192v12.896h-7.127V7.483h9.79c4.567,0,7.948,0.832,10.138,2.494
		c2.192,1.662,3.287,4.188,3.287,7.574c0,1.976-0.545,3.735-1.631,5.273c-1.089,1.542-2.63,2.749-4.62,3.621
		c5.057,7.557,8.352,12.437,9.884,14.644h-7.908l-8.021-12.896H149.078z M149.078,22.402h2.299c2.25,0,3.913-0.377,4.987-1.127
		c1.07-0.751,1.608-1.931,1.608-3.54c0-1.594-0.549-2.728-1.644-3.401c-1.095-0.675-2.793-1.011-5.091-1.011h-2.16V22.402z"/>
	<path fill="#676767" d="M173.027,41.089V7.483h7.127v33.605H173.027z"/>
	<path fill="#676767" d="M202.885,12.93c-2.682,0-4.759,1.008-6.229,3.022c-1.47,2.017-2.204,4.824-2.204,8.425
		c0,7.494,2.809,11.24,8.434,11.24c2.36,0,5.218-0.591,8.574-1.771v5.977c-2.76,1.148-5.837,1.725-9.24,1.725
		c-4.888,0-8.628-1.483-11.217-4.447c-2.59-2.965-3.885-7.222-3.885-12.768c0-3.494,0.636-6.556,1.908-9.184
		c1.271-2.627,3.1-4.644,5.481-6.044C196.891,7.702,199.682,7,202.885,7c3.263,0,6.542,0.791,9.837,2.367l-2.299,5.793
		c-1.255-0.597-2.521-1.118-3.79-1.562C205.36,13.152,204.11,12.93,202.885,12.93z"/>
	<path fill="#676767" d="M245.637,41.089h-8.089l-8.805-14.159l-3.012,2.16v11.999h-7.127V7.483h7.127V22.86l2.807-3.953l9.1-11.424
		h7.908l-11.725,14.872L245.637,41.089z"/>
</g>
</svg>
