<?xml version="1.0" encoding="utf-8"?>
<!-- Generator: Adobe Illustrator 16.0.0, SVG Export Plug-In . SVG Version: 6.00 Build 0)  -->
<!DOCTYPE svg PUBLIC "-//W3C//DTD SVG 1.1//EN" "http://www.w3.org/Graphics/SVG/1.1/DTD/svg11.dtd">
<svg version="1.1" id="Layer_1" xmlns="http://www.w3.org/2000/svg" xmlns:xlink="http://www.w3.org/1999/xlink" x="0px" y="0px"
	 width="500px" height="500px" viewBox="0 0 500 500" enable-background="new 0 0 500 500" xml:space="preserve">
<g>
	<rect x="40.235" y="109.064" fill="#F2F2F2" width="428.468" height="241.013"/>
	<path fill="#4D4D4D" d="M471.065,352.44H37.872V106.701h433.194V352.44z M42.598,347.715H466.34V111.427H42.598V347.715z"/>
</g>
<g>
	<rect x="21.332" y="79.134" fill="#F7931E" width="466.274" height="29.93"/>
	<path fill="#4D4D4D" d="M489.969,111.427h-471V76.771h471V111.427z M23.694,106.701h461.549V81.498H23.694V106.701z"/>
</g>
<g>
	<rect x="200.91" y="48.629" fill="#F2F2F2" width="108.692" height="29.93"/>
	<path fill="#4D4D4D" d="M311.966,80.922H198.547V46.267h113.418V80.922z M203.273,76.196h103.966V50.992H203.273V76.196z"/>
</g>
<g>
	<g>
		
			<rect x="202.907" y="341.524" transform="matrix(0.872 0.4895 -0.4895 0.872 226.1748 -48.2103)" fill="#4D4D4D" width="4.726" height="133.674"/>
	</g>
	<g>
		
			<rect x="241.033" y="405.999" transform="matrix(0.4895 0.872 -0.872 0.4895 513.283 -59.9853)" fill="#4D4D4D" width="133.674" height="4.724"/>
	</g>
</g>
<g>
	<rect x="93.793" y="161.047" fill="#08C5FF" width="107.117" height="132.321"/>
	<path fill="#4D4D4D" d="M203.273,295.731H91.43V158.685h111.843V295.731z M96.156,291.006h102.391V163.41H96.156V291.006z"/>
</g>
<g>
	<rect x="240.292" y="172.862" fill="#4D4D4D" width="176.428" height="4.726"/>
</g>
<g>
	<rect x="240.292" y="220.12" fill="#4D4D4D" width="176.428" height="4.726"/>
</g>
<g>
	<rect x="240.292" y="268.952" fill="#4D4D4D" width="176.428" height="4.726"/>
</g>
</svg>
