<?xml version="1.0" encoding="utf-8"?>
<!-- Generator: Adobe Illustrator 16.0.0, SVG Export Plug-In . SVG Version: 6.00 Build 0)  -->
<!DOCTYPE svg PUBLIC "-//W3C//DTD SVG 1.1//EN" "http://www.w3.org/Graphics/SVG/1.1/DTD/svg11.dtd">
<svg version="1.1" id="Layer_1" xmlns="http://www.w3.org/2000/svg" xmlns:xlink="http://www.w3.org/1999/xlink" x="0px" y="0px"
	 width="500px" height="500px" viewBox="0 0 500 500" enable-background="new 0 0 500 500" xml:space="preserve">
<g>
	<g>
		<polygon fill="#F2F2F2" points="357.17,29.935 148.776,29.935 148.776,397.421 432.558,397.421 432.558,112.978 		"/>
		<path fill="#4D4D4D" d="M435.62,400.482H145.714V26.872h212.812l77.095,84.923V400.482z M151.839,394.358h277.656V114.16
			l-73.681-81.163H151.839V394.358z"/>
	</g>
</g>
<g>
	<rect x="351.915" y="30.828" fill="#4D4D4D" width="6.124" height="86.895"/>
</g>
<g>
	<rect x="352.744" y="114.66" fill="#4D4D4D" width="79.813" height="6.125"/>
</g>
<g>
	<rect x="26.281" y="115.681" fill="#F2F2F2" width="304.196" height="361.361"/>
	<path fill="#4D4D4D" d="M333.54,480.104H23.219V112.619H333.54V480.104z M29.344,473.98h298.072V118.744H29.344V473.98z"/>
</g>
<g>
	<rect x="75.279" y="168.763" fill="#08C5FF" width="118.412" height="53.081"/>
	<path fill="#4D4D4D" d="M196.754,224.906H72.217V165.7h124.537V224.906z M78.342,218.781h112.287v-46.957H78.342V218.781z"/>
</g>
<g>
	<rect x="216.149" y="171.825" fill="#808080" width="81.664" height="6.125"/>
</g>
<g>
	<rect x="216.149" y="194.282" fill="#808080" width="81.664" height="6.125"/>
</g>
<g>
	<rect x="216.149" y="214.698" fill="#808080" width="81.664" height="6.125"/>
</g>
<g>
	<rect x="75.279" y="378.025" fill="#4D4D4D" width="118.412" height="6.125"/>
</g>
<g>
	<rect x="75.279" y="400.482" fill="#4D4D4D" width="118.412" height="6.125"/>
</g>
<g>
	<rect x="75.279" y="420.898" fill="#4D4D4D" width="118.412" height="6.125"/>
</g>
<g>
	<rect x="71.196" y="267.779" fill="#4D4D4D" width="226.616" height="6.125"/>
</g>
<g>
	<rect x="71.196" y="290.237" fill="#4D4D4D" width="226.616" height="6.124"/>
</g>
<g>
	<rect x="71.196" y="310.653" fill="#4D4D4D" width="226.616" height="6.124"/>
</g>
<g>
	<g>
		<path fill="#F7931E" d="M295.771,421.453c0-9.323-7.389-15.866-16.711-15.866h-39.012c-9.325,0-17.774,6.543-17.774,15.866v12.716
			h73.497V421.453z"/>
		<path fill="#4D4D4D" d="M298.833,437.231h-79.622v-15.778c0-10.615,9.152-18.929,20.836-18.929h39.012
			c11.272,0,19.773,8.139,19.773,18.929V437.231z M225.336,431.106h67.373v-9.653c0-7.419-5.74-12.804-13.649-12.804h-39.012
			c-7.231,0-14.712,4.789-14.712,12.804V431.106z"/>
	</g>
	<g>
		<path fill="#F7931E" d="M258.663,397.337c11.979,0,21.704-9.712,21.704-21.704c0-11.988-9.726-21.704-21.704-21.704
			c-11.99,0-21.704,9.716-21.704,21.704C236.959,387.625,246.673,397.337,258.663,397.337z"/>
		<path fill="#4D4D4D" d="M258.663,400.399c-13.656,0-24.766-11.11-24.766-24.767s11.11-24.767,24.766-24.767
			c13.656,0,24.767,11.11,24.767,24.767S272.319,400.399,258.663,400.399z M258.663,356.991c-10.278,0-18.641,8.363-18.641,18.642
			c0,10.279,8.363,18.642,18.641,18.642c10.279,0,18.642-8.362,18.642-18.642C277.305,365.354,268.942,356.991,258.663,356.991z"/>
	</g>
</g>
<g>
	<rect x="26.281" y="29.935" fill="#F7931E" width="100.038" height="65.331"/>
	<path fill="#4D4D4D" d="M129.381,98.328H23.219V26.872h106.163V98.328z M29.344,92.203h93.913V32.997H29.344V92.203z"/>
</g>
<g>
	<rect x="63.03" y="45.247" fill="#4D4D4D" width="28.582" height="6.125"/>
</g>
<g>
	<rect x="46.697" y="59.538" fill="#4D4D4D" width="59.206" height="6.125"/>
</g>
<g>
	<rect x="65.071" y="73.829" fill="#4D4D4D" width="24.499" height="6.125"/>
</g>
<g>
	<polygon fill="#4D4D4D" points="485.639,480.104 349.873,480.104 349.873,416.815 485.639,416.815 485.639,422.94 355.998,422.94 
		355.998,473.98 485.639,473.98 	"/>
</g>
<g>
	
		<rect x="471.22" y="417.874" transform="matrix(0.883 0.4695 -0.4695 0.883 259.7289 -171.7421)" fill="#4D4D4D" width="6.124" height="34.249"/>
</g>
<g>
	
		<rect x="455.687" y="459.624" transform="matrix(0.4204 0.9073 -0.9073 0.4204 694.4882 -161.8131)" fill="#4D4D4D" width="36.424" height="6.127"/>
</g>
</svg>
