<?xml version="1.0" encoding="utf-8"?>
<!-- Generator: Adobe Illustrator 16.0.0, SVG Export Plug-In . SVG Version: 6.00 Build 0)  -->
<!DOCTYPE svg PUBLIC "-//W3C//DTD SVG 1.1//EN" "http://www.w3.org/Graphics/SVG/1.1/DTD/svg11.dtd">
<svg version="1.1" id="Layer_1" xmlns="http://www.w3.org/2000/svg" xmlns:xlink="http://www.w3.org/1999/xlink" x="0px" y="0px"
	 width="500px" height="500px" viewBox="0 0 500 500" enable-background="new 0 0 500 500" xml:space="preserve">
<g>
	<rect x="28.811" y="76.71" fill="#FFFFFF" width="446.888" height="272.976"/>
	<path fill="#666666" d="M477.899,351.887H26.609V74.509h451.29V351.887z M31.012,347.484h442.484V78.912H31.012V347.484z"/>
</g>
<g>
	<rect x="28.811" y="128.005" fill="#F2F2F2" width="446.888" height="274.495"/>
	<path fill="#4D4D4D" d="M479,405.803H25.509v-281.1H479V405.803z M32.113,399.198h440.283V131.307H32.113V399.198z"/>
</g>
<g>
	<path fill="#4D4D4D" d="M127.354,348.109h-27.281c-2.046,0-3.409-1.365-3.409-3.409v-98.892c0-2.044,1.703-3.41,3.409-3.41h27.281
		c2.047,0,3.41,1.705,3.41,3.41V344.7C130.764,346.744,129.061,348.109,127.354,348.109z M103.482,341.293h20.462V249.22h-20.462
		V341.293z M184.638,341.293L184.638,341.293c-2.391,0-4.772,0-7.159,0c-9.206-0.342-20.118-2.047-27.961-3.074
		c-3.749-0.68-7.159-1.02-9.205-1.02c-1.707,0-3.074-1.707-3.074-3.409v-80.82c0-1.363,1.027-2.726,2.051-3.07l1.703-0.679
		c7.842-2.73,23.872-8.866,32.058-17.731c8.861-9.21,12.955-21.825,12.955-36.831c0.335-4.774,3.066-13.638,12.275-13.638
		c1.703,0,3.75,0.337,6.136,1.023c0.344,0,1.023,0.342,1.363,0.68c3.754,3.749,16.034,25.916,4.438,59.677h19.438l0,0
		c1.363,0,11.592,0.34,15.681,13.3c0.684,1.705,3.414,8.864-2.726,17.729c1.707,3.069,4.437,9.549,1.367,16.373
		c-0.348,0.679-1.707,4.771-4.438,7.5c1.707,5.794,1.368,15.344-6.814,22.163c-0.349,4.093-2.051,13.641-10.233,17.05
		C221.469,336.859,207.151,341.293,184.638,341.293z M144.407,330.72c1.703,0.34,4.093,0.68,6.475,1.021
		c7.842,1.023,18.411,2.389,27.281,3.067c25.23,1.025,41.943-4.433,41.943-4.433c5.8-2.391,5.8-12.275,5.8-12.275
		c0-1.021,0.675-2.047,1.358-2.727c9.55-6.818,5.112-17.052,5.112-17.733c-0.675-1.705,0-3.41,1.707-4.431
		c1.367-0.682,3.074-3.754,3.753-5.46c2.726-6.137-1.707-11.935-1.707-11.935c-1.023-1.36-1.023-3.065,0-4.433
		c5.796-6.819,3.409-12.273,3.409-12.617c0,0,0-0.338-0.344-0.338c-2.726-8.868-8.861-9.208-9.201-9.208H205.44
		c-1.023,0-2.047-0.684-2.726-1.367c-0.684-1.021-0.684-2.044-0.34-3.066c11.936-31.032,2.387-52.171-0.688-56.609
		c-1.359-0.342-2.382-0.342-3.062-0.342c-4.772,0-5.117,6.14-5.117,6.821c0,16.708-4.777,30.691-14.662,41.259
		c-9.206,9.892-25.579,16.029-34.105,19.099v75.704H144.407z M113.711,334.469c-2.042,0-3.41-1.364-3.41-3.409
		c0-2.042,1.707-3.409,3.41-3.409c1.707,0,3.41,1.704,3.41,3.409C117.121,333.104,115.418,334.469,113.711,334.469z"/>
</g>
<g>
	<rect x="292.98" y="185.68" fill="#4D4D4D" width="136.487" height="6.604"/>
</g>
<g>
	<rect x="292.98" y="216.5" fill="#4D4D4D" width="136.487" height="6.604"/>
</g>
<g>
	<rect x="292.98" y="245.118" fill="#4D4D4D" width="136.487" height="6.604"/>
</g>
<g>
	<rect x="297.383" y="301.254" fill="#FF931E" width="127.683" height="55.036"/>
	<path fill="#4D4D4D" d="M428.367,359.592H294.081v-61.64h134.286V359.592z M300.686,352.987h121.078v-48.431H300.686V352.987z"/>
</g>
<g>
	<rect x="103.482" y="249.521" fill="#08C5FF" width="20.462" height="91.772"/>
</g>
<g>
	<rect x="28.738" y="78.43" fill="#08C5FF" width="446.928" height="48.889"/>
	<path fill="#4D4D4D" d="M478.968,130.621H25.436V75.128h453.532V130.621z M32.04,124.017h440.324V81.732H32.04V124.017z"/>
</g>
<g>
	<path fill="#FFFFFF" d="M412.581,103.458c0,4.276-3.465,7.729-7.737,7.729c-4.271,0-7.724-3.453-7.724-7.729
		c0-4.271,3.452-7.732,7.724-7.732C409.116,95.726,412.581,99.187,412.581,103.458z"/>
	<path fill="#4D4D4D" d="M404.844,114.489c-6.079,0-11.026-4.949-11.026-11.031c0-6.085,4.947-11.035,11.026-11.035
		c6.087,0,11.04,4.95,11.04,11.035C415.884,109.54,410.931,114.489,404.844,114.489z M404.844,99.027
		c-2.438,0-4.422,1.988-4.422,4.431c0,2.441,1.984,4.427,4.422,4.427c2.447,0,4.436-1.985,4.436-4.427
		C409.279,101.015,407.291,99.027,404.844,99.027z"/>
</g>
<g>
	<path fill="#FFFFFF" d="M444.76,103.458c0,4.276-3.466,7.729-7.737,7.729s-7.724-3.453-7.724-7.729
		c0-4.271,3.452-7.732,7.724-7.732S444.76,99.187,444.76,103.458z"/>
	<path fill="#4D4D4D" d="M437.022,114.489c-6.079,0-11.026-4.949-11.026-11.031c0-6.085,4.947-11.035,11.026-11.035
		c6.086,0,11.039,4.95,11.039,11.035C448.062,109.54,443.108,114.489,437.022,114.489z M437.022,99.027
		c-2.438,0-4.422,1.988-4.422,4.431c0,2.441,1.984,4.427,4.422,4.427c2.446,0,4.436-1.985,4.436-4.427
		C441.458,101.015,439.469,99.027,437.022,99.027z"/>
</g>
</svg>
