<?xml version="1.0" encoding="utf-8"?>
<!-- Generator: Adobe Illustrator 16.0.0, SVG Export Plug-In . SVG Version: 6.00 Build 0)  -->
<!DOCTYPE svg PUBLIC "-//W3C//DTD SVG 1.1//EN" "http://www.w3.org/Graphics/SVG/1.1/DTD/svg11.dtd">
<svg version="1.1" id="Layer_1" xmlns="http://www.w3.org/2000/svg" xmlns:xlink="http://www.w3.org/1999/xlink" x="0px" y="0px"
	 width="500px" height="500px" viewBox="0 0 500 500" enable-background="new 0 0 500 500" xml:space="preserve">
<g>
	<rect x="76.93" y="127.993" fill="#F2F2F2" width="353.255" height="222.703"/>
	<path fill="#666666" d="M434.023,354.536H73.09V124.153h360.933V354.536z M80.77,346.857h345.575V131.833H80.77V346.857z"/>
</g>
<g>
	<polyline fill="#F2F2F2" points="23.174,127.993 46.212,127.993 46.212,350.696 23.174,350.696 	"/>
	<polygon fill="#666666" points="50.052,354.536 23.174,354.536 23.174,346.857 42.373,346.857 42.373,131.833 23.174,131.833 
		23.174,124.153 50.052,124.153 	"/>
</g>
<g>
	<polyline fill="#F2F2F2" points="486.5,127.993 460.902,127.993 460.902,350.696 486.5,350.696 	"/>
	<polygon fill="#666666" points="486.5,354.536 457.063,354.536 457.063,124.153 486.5,124.153 486.5,131.833 464.741,131.833 
		464.741,346.857 486.5,346.857 	"/>
</g>
<g>
	<rect x="99.968" y="63.998" fill="#08C5FF" width="35.837" height="35.837"/>
	<path fill="#666666" d="M139.646,103.675H96.128V60.158h43.517V103.675z M103.808,95.995h28.158V67.837h-28.158V95.995z"/>
</g>
<g>
	<polyline fill="#F2F2F2" points="23.174,63.998 43.652,63.998 43.652,99.835 23.174,99.835 	"/>
	<polygon fill="#666666" points="47.492,103.675 23.174,103.675 23.174,95.995 39.813,95.995 39.813,67.837 23.174,67.837 
		23.174,60.158 47.492,60.158 	"/>
</g>
<g>
	<polyline fill="#F2F2F2" points="486.5,63.998 466.021,63.998 466.021,99.835 486.5,99.835 	"/>
	<polygon fill="#666666" points="486.5,103.675 462.182,103.675 462.182,60.158 486.5,60.158 486.5,67.837 469.861,67.837 
		469.861,95.995 486.5,95.995 	"/>
</g>
<g>
	<rect x="192.122" y="63.998" fill="#08C5FF" width="35.837" height="35.837"/>
	<path fill="#666666" d="M231.799,103.675h-43.517V60.158h43.517V103.675z M195.961,95.995h28.158V67.837h-28.158V95.995z"/>
</g>
<g>
	<rect x="281.715" y="63.998" fill="#08C5FF" width="35.838" height="35.837"/>
	<path fill="#666666" d="M321.392,103.675h-43.517V60.158h43.517V103.675z M285.555,95.995h28.158V67.837h-28.158V95.995z"/>
</g>
<g>
	<rect x="373.868" y="63.998" fill="#08C5FF" width="35.838" height="35.837"/>
	<path fill="#666666" d="M413.545,103.675h-43.517V60.158h43.517V103.675z M377.708,95.995h28.158V67.837h-28.158V95.995z"/>
</g>
<g>
	<polyline fill="#F2F2F2" points="23.174,378.854 43.652,378.854 43.652,414.692 23.174,414.692 	"/>
	<polygon fill="#666666" points="47.492,418.532 23.174,418.532 23.174,410.853 39.813,410.853 39.813,382.694 23.174,382.694 
		23.174,375.015 47.492,375.015 	"/>
</g>
<g>
	<polyline fill="#F2F2F2" points="486.5,378.854 466.021,378.854 466.021,414.692 486.5,414.692 	"/>
	<polygon fill="#666666" points="486.5,418.532 462.182,418.532 462.182,375.015 486.5,375.015 486.5,382.694 469.861,382.694 
		469.861,410.853 486.5,410.853 	"/>
</g>
<g>
	<rect x="99.968" y="378.854" fill="#08C5FF" width="35.837" height="35.838"/>
	<path fill="#666666" d="M139.646,418.532H96.128v-43.518h43.517V418.532z M103.808,410.853h28.158v-28.158h-28.158V410.853z"/>
</g>
<g>
	<rect x="192.122" y="378.854" fill="#08C5FF" width="35.837" height="35.838"/>
	<path fill="#666666" d="M231.799,418.532h-43.517v-43.518h43.517V418.532z M195.961,410.853h28.158v-28.158h-28.158V410.853z"/>
</g>
<g>
	<rect x="281.715" y="378.854" fill="#08C5FF" width="35.838" height="35.838"/>
	<path fill="#666666" d="M321.392,418.532h-43.517v-43.518h43.517V418.532z M285.555,410.853h28.158v-28.158h-28.158V410.853z"/>
</g>
<g>
	<rect x="373.868" y="378.854" fill="#08C5FF" width="35.838" height="35.838"/>
	<path fill="#666666" d="M413.545,418.532h-43.517v-43.518h43.517V418.532z M377.708,410.853h28.158v-28.158h-28.158V410.853z"/>
</g>
<g>
	<g>
		<g>
			<g>
				<path fill="#F05D5F" d="M355.05,186.404c-1.5,0-3,0.3-4.425,0.9c-2.85,1.2-5.1,3.452-6.305,6.302c-1.2,2.853-1.2,6.002,0,8.852
					c1.8,4.35,6.005,7.2,10.729,7.2c1.5,0,3-0.3,4.425-0.9c5.93-2.475,8.704-9.225,6.299-15.152
					C363.974,189.179,359.774,186.404,355.05,186.404z M358.649,206.657c-1.125,0.45-2.325,0.75-3.6,0.75
					c-3.825,0-7.2-2.25-8.625-5.774c-0.975-2.325-0.975-4.877,0-7.202c0.976-2.325,2.775-4.125,5.1-5.102
					c1.125-0.45,2.325-0.75,3.601-0.75c3.824,0,7.199,2.252,8.624,5.777C365.699,199.233,363.374,204.708,358.649,206.657z"/>
				<path fill="#666666" d="M355.05,212.217c-5.747,0-10.888-3.446-13.095-8.781c-1.465-3.479-1.465-7.327,0.006-10.823
					c1.474-3.483,4.197-6.206,7.67-7.669c1.735-0.73,3.558-1.1,5.419-1.1c5.782,0,10.923,3.454,13.095,8.798
					c2.923,7.201-0.525,15.489-7.684,18.478C358.733,211.847,356.911,212.217,355.05,212.217z M355.125,191.138
					c-0.829,0-1.695,0.185-2.649,0.568c-1.654,0.695-2.979,2.021-3.689,3.714c-0.706,1.684-0.706,3.539,0,5.222
					c1.038,2.566,3.491,4.205,6.264,4.205c0.828,0,1.694-0.185,2.648-0.567c3.426-1.414,5.085-5.443,3.674-8.974
					C360.351,192.778,357.896,191.138,355.125,191.138z"/>
			</g>
		</g>
	</g>
	<g>
		<g>
			<g>
				<g>
					<path fill="#F05D5F" d="M366.594,260.063l-16.759-11.752l-9.31-6.517l26.068-18.269c13.964-5.935,20.483-22.108,14.664-36.19
						c-4.305-10.474-14.429-17.106-25.719-17.106c-3.609,0-7.214,0.697-10.589,2.095c-14.194,5.82-20.828,22.108-15.009,36.308
						c2.21,5.352,5.935,9.659,10.469,12.684l-16.873,8.609l-42.357-29.788c-6.169-4.305-13.964-5.589-21.293-3.495
						c-7.33,2.095-13.149,7.334-16.059,14.431c-0.35,0.815,0,1.863,0.815,2.212l55.621,28.508l-55.856,28.628
						c-0.815,0.465-1.16,1.395-0.815,2.21c3.84,9.309,12.919,15.361,23.043,15.361c5.12,0,10.005-1.513,14.194-4.537l42.477-29.793
						l16.989,8.729c-4.54,3.025-8.26,7.33-10.475,12.567c-5.819,14.196,0.935,30.373,15.014,36.308
						c3.375,1.396,6.979,2.095,10.59,2.095l0,0c11.284,0,21.293-6.75,25.718-17.106
						C387.192,282.177,380.558,265.883,366.594,260.063z M333.081,207.352c-5.119-12.334,0.815-26.648,13.149-31.77
						c3.024-1.28,6.049-1.86,9.309-1.86c9.89,0,18.619,5.932,22.459,15.011c5.119,12.334-0.815,26.648-13.149,31.768
						c0,0,0,0-0.114,0l0,0c-2.91,1.165-6.055,1.862-9.195,1.862c-3.609,0-7.214-0.815-10.474-2.328c-0.115,0-0.23-0.117-0.351-0.117
						C339.596,217.242,335.406,212.937,333.081,207.352z M247.782,210.957c2.68-5.235,7.335-9.189,13.149-10.939
						c6.284-1.86,12.919-0.695,18.269,3.03l40.847,28.623l-15.823,8.147L247.782,210.957z M278.97,280.547
						c-3.609,2.56-7.914,3.84-12.219,3.84c-8.145,0-15.474-4.54-19.199-11.754l96.468-49.457c3.489,1.63,7.444,2.445,11.519,2.445
						l0,0c0.58,0,1.165,0,1.745-0.115L278.97,280.547z M326.797,251.339l10.704-7.449l10.359,7.214l9.659,6.75
						c-0.585,0-1.05,0-1.63,0c-4.075,0-8.029,0.93-11.52,2.56L326.797,251.339z M378.113,294.86
						c-3.725,9.075-12.564,15.01-22.459,15.01c-3.14,0-6.284-0.583-9.309-1.862c-12.335-5.12-18.27-19.316-13.149-31.766
						c2.33-5.587,6.515-9.895,11.639-12.454c0.115,0,0.23-0.115,0.346-0.115c3.494-1.63,7.334-2.444,11.059-2.444
						c0.345,0,0.695,0,1.16,0c0.35,0,0.815,0.115,1.165,0.115c0.465,0.119,0.93,0.119,1.515,0.234c0.23,0,0.465,0.115,0.695,0.115
						c0.585,0.117,1.165,0.234,1.745,0.465c0.119,0,0.234,0.117,0.35,0.117c0.7,0.232,1.399,0.468,1.979,0.697
						C377.418,268.328,383.232,282.524,378.113,294.86z"/>
					<path fill="#666666" d="M355.425,315.922c-4.008,0-7.899-0.771-11.568-2.29c-15.36-6.475-22.712-24.256-16.403-39.642
						c1.815-4.295,4.572-8.09,8.079-11.167l-12.021-6.176L282.3,285.552c-4.522,3.265-9.948,5.002-15.664,5.002
						c-11.19,0-21.163-6.652-25.409-16.946c-0.836-1.973-0.018-4.308,1.913-5.407l51.512-26.405l-51.176-26.229
						c-0.877-0.371-1.696-1.254-2.087-2.349c-0.371-1.038-0.34-2.157,0.088-3.152c3.188-7.775,9.647-13.579,17.707-15.882
						c8.006-2.288,16.709-0.856,23.462,3.856l41.104,28.906l11.895-6.069c-3.525-3.103-6.28-6.937-8.067-11.266
						c-6.372-15.547,0.987-33.333,16.404-39.653c3.661-1.516,7.553-2.286,11.56-2.286c12.395,0,23.419,7.337,28.086,18.692
						c6.305,15.253-0.771,32.872-15.777,39.411l-22.859,16.02l22.852,16.017c7.262,3.106,12.897,8.867,15.892,16.254
						c3.046,7.518,2.962,15.757-0.236,23.201C378.654,308.598,367.635,315.922,355.425,315.922z M345.675,266.232
						c-4.556,2.365-8.141,6.258-10.116,10.995c-4.556,11.079,0.721,23.83,11.768,28.415c2.62,1.109,5.416,1.667,8.328,1.667
						c8.858,0,16.744-5.267,20.09-13.421c4.57-11.012-0.77-23.818-11.899-28.561c-0.382-0.15-0.876-0.32-1.391-0.492h-0.195
						l-0.684-0.298c-0.379-0.15-0.76-0.228-1.143-0.303c-0.226-0.022-0.416-0.064-0.55-0.098l-0.297-0.047
						c-0.196-0.04-0.375-0.058-0.544-0.078c-0.288-0.034-0.561-0.069-0.829-0.125c-0.189-0.015-0.389-0.04-0.589-0.067l-0.26-0.032
						h-1.125c-3.435,0-6.884,0.763-9.977,2.205L345.675,266.232z M251.154,273.662c3.548,5.093,9.319,8.165,15.597,8.165
						c3.919,0,7.631-1.165,10.738-3.367l72.283-50.803c-1.974-0.365-3.877-0.918-5.665-1.65L251.154,273.662z M331.745,251.014
						l12.713,6.563c1.842-0.764,3.766-1.343,5.727-1.726l-12.684-8.844L331.745,251.014z M251.377,209.921l52.843,27.019
						l10.888-5.606l-37.376-26.19c-4.721-3.286-10.64-4.276-16.074-2.671C257.418,203.749,253.842,206.355,251.377,209.921z
						 M357.575,224.84l0.619,1.447l2.797-1.961C359.85,224.575,358.709,224.746,357.575,224.84z M345.579,217.477h0.051l0.513,0.237
						c5.386,2.499,11.582,2.836,17.64,0.411l0.542-0.184c10.771-4.757,15.841-17.309,11.309-28.227
						c-3.448-8.154-11.338-13.433-20.094-13.433c-2.998,0-5.639,0.526-8.312,1.658c-11.099,4.609-16.378,17.361-11.781,28.432
						c1.972,4.74,5.462,8.568,10.103,11.092L345.579,217.477z"/>
				</g>
				<g>
					<g>
						<g>
							<path d="M355.05,274.287c-1.5,0-3,0.3-4.425,0.9c-2.85,1.199-5.1,3.452-6.305,6.302c-1.2,2.853-1.2,6.002,0,8.852
								c1.8,4.35,6.005,7.2,10.729,7.2c1.5,0,3-0.301,4.425-0.9c5.93-2.475,8.704-9.225,6.299-15.151
								C363.974,277.063,359.774,274.287,355.05,274.287z M358.649,294.541c-1.125,0.45-2.325,0.75-3.6,0.75
								c-3.825,0-7.2-2.25-8.625-5.774c-0.975-2.325-0.975-4.878,0-7.202c0.976-2.325,2.775-4.125,5.1-5.103
								c1.125-0.45,2.325-0.75,3.601-0.75c3.824,0,7.199,2.253,8.624,5.777C365.699,287.116,363.374,292.591,358.649,294.541z"/>
							<path fill="#666666" d="M355.05,300.101c-5.747,0-10.888-3.447-13.095-8.779c-1.465-3.479-1.465-7.33,0.006-10.824
								c1.474-3.485,4.197-6.207,7.67-7.67c1.735-0.729,3.558-1.1,5.419-1.1c5.782,0,10.923,3.452,13.095,8.797
								c2.923,7.202-0.525,15.491-7.684,18.479C358.733,299.73,356.911,300.101,355.05,300.101z M355.125,279.021
								c-0.829,0-1.695,0.186-2.649,0.568c-1.654,0.694-2.979,2.02-3.689,3.714c-0.706,1.686-0.706,3.538,0,5.223
								c1.038,2.567,3.491,4.204,6.264,4.204c0.828,0,1.694-0.185,2.648-0.567c3.426-1.412,5.085-5.444,3.674-8.974
								C360.351,280.662,357.896,279.021,355.125,279.021z"/>
						</g>
					</g>
				</g>
			</g>
		</g>
	</g>
</g>
<g>
	<rect x="23.174" y="32" fill="#666666" width="463.326" height="7.679"/>
</g>
<g>
	<rect x="23.174" y="436.45" fill="#666666" width="463.326" height="7.68"/>
</g>
<g id="Icons_with_numbers_6_">
	<g id="Group_6_" transform="translate(-480.000000, -192.000000)">
		<g id="Rectangle_233_6_">
			<path fill="#08C5FF" d="M637.789,417.151l-0.865,51.151l-2.72,6.72c-2.56,5.279-11.404,10.85-17.438,11.52
				c-9.569,1.063-16.724-3.155-20.023-8.239c-3.295-5.09-0.88-13.109,7.684-17.519c5.76-2.96,11.719-2.955,16.009-1.091v-38.947
				v-25.103l62.761-12.552v6.277v18.829v53.978l0,0c0.035,4.468-2.945,9.512-9.094,12.682c-8.57,4.399-18.379,2.695-20.874-2.829
				c-2.545-5.646-1.025-10.785,4.725-15.682c5.759-2.96,5.399-3.827,9.689-1.963l-0.11-43.776L637.789,417.151z"/>
			<path fill="#666666" d="M613.826,490.546c-8.588,0-16.179-3.795-20.305-10.154c-2.011-3.107-2.556-6.93-1.534-10.765
				c1.346-5.052,5.14-9.404,10.682-12.259c4.422-2.271,9.358-3.2,13.927-2.638v-62.235l70.439-14.088v83.768
				c0.05,6.337-4.232,12.517-11.175,16.094c-3.727,1.915-7.809,2.925-11.809,2.925c-6.721,0-12.209-2.907-14.323-7.587
				c-2.273-5.044-3.125-12.639,5.735-20.185l0.735-0.491c1.104-0.567,1.972-1.055,2.688-1.456c1.731-0.97,3.132-1.755,4.903-1.893
				l-0.085-34.202l-22.127,4.87l-0.826,48.833l-3.092,7.614c-3.34,6.89-13.562,12.895-20.47,13.662
				C616.062,490.483,614.931,490.546,613.826,490.546z M613.913,462.245c-2.572,0-5.246,0.675-7.732,1.952
				c-3.535,1.82-6.004,4.52-6.773,7.407c-0.457,1.712-0.259,3.35,0.557,4.609c2.328,3.588,8.076,7.452,16.376,6.51
				c4.925-0.545,12.378-5.375,14.358-9.276l2.397-5.925l0.904-53.47l37.358-8.219l0.138,54.412l-5.386-2.34
				c-1.254-0.545-1.667-0.652-1.803-0.665c-0.102,0.058-0.935,0.522-1.667,0.933c-0.69,0.388-1.509,0.845-2.519,1.372
				c-5.232,4.61-4.66,8.095-3.394,10.904c0.827,1.833,3.77,3.065,7.322,3.065c2.786,0,5.655-0.718,8.297-2.072
				c5.198-2.681,7.03-6.53,7.008-9.237v-74.431l-55.081,11.015v66.76l-5.371-2.335C617.447,462.58,615.721,462.245,613.913,462.245z
				"/>
		</g>
	</g>
</g>
<g>
	<path fill="#F7931E" d="M279.475,278.832c-3.419,2.41-7.499,3.614-11.584,3.614c-7.725,0-14.674-4.274-18.208-11.066l91.473-46.566
		c3.311,1.535,7.064,2.3,10.925,2.3l0,0c0.55,0,1.104,0,1.654-0.11L279.475,278.832z"/>
	<path fill="#666666" d="M267.891,283.727c-8.158,0-15.569-4.505-19.343-11.757l-0.596-1.145l93.178-47.434l0.565,0.261
		c3.076,1.427,6.668,2.181,10.386,2.181c0.462,0.002,0.936,0.007,1.403-0.085l6.007-1.201l-79.282,55.334
		C276.639,282.396,272.379,283.727,267.891,283.727z M251.452,271.915c3.484,5.737,9.672,9.252,16.438,9.252
		c3.958,0,7.709-1.17,10.847-3.383l70.911-49.49c-2.993-0.246-5.872-0.946-8.458-2.063L251.452,271.915z"/>
</g>
<g>
	<path fill="#F7931E" d="M248.387,211.234c2.55-4.984,6.98-8.747,12.519-10.414c5.979-1.77,12.294-0.66,17.384,2.885l38.877,27.243
		l-15.063,7.755L248.387,211.234z"/>
	<path fill="#666666" d="M302.105,240.141l-55.44-28.351l0.583-1.139c2.752-5.379,7.472-9.306,13.291-11.058
		c6.261-1.852,13.063-0.715,18.483,3.061l40.615,28.46L302.105,240.141z M250.146,210.697l51.955,26.567l12.597-6.483
		l-37.142-26.027c-4.782-3.331-10.783-4.33-16.285-2.706C256.543,203.47,252.635,206.52,250.146,210.697z"/>
</g>
<g>
	<path fill="#F7931E" d="M362.27,198.081c0,3.957-3.205,7.159-7.16,7.159c-3.954,0-7.159-3.202-7.159-7.159
		c0-3.953,3.205-7.16,7.159-7.16C359.064,190.921,362.27,194.128,362.27,198.081z"/>
	<path fill="#666666" d="M355.109,206.52c-4.653,0-8.439-3.786-8.439-8.439c0-4.654,3.786-8.439,8.439-8.439
		s8.439,3.786,8.439,8.439C363.549,202.734,359.763,206.52,355.109,206.52z M355.109,192.201c-3.242,0-5.879,2.637-5.879,5.88
		c0,3.242,2.637,5.879,5.879,5.879s5.88-2.637,5.88-5.879C360.989,194.838,358.352,192.201,355.109,192.201z"/>
</g>
<g>
	<path fill="#F7931E" d="M362.749,285.354c0,4.09-3.314,7.4-7.399,7.4s-7.399-3.311-7.399-7.4c0-4.084,3.314-7.399,7.399-7.399
		S362.749,281.27,362.749,285.354z"/>
	<path fill="#666666" d="M355.35,294.033c-4.786,0-8.68-3.895-8.68-8.68c0-4.784,3.894-8.679,8.68-8.679s8.68,3.895,8.68,8.679
		C364.029,290.139,360.136,294.033,355.35,294.033z M355.35,279.234c-3.375,0-6.119,2.745-6.119,6.119
		c0,3.375,2.744,6.12,6.119,6.12s6.119-2.745,6.119-6.12C361.469,281.979,358.725,279.234,355.35,279.234z"/>
</g>
</svg>
