<?xml version="1.0" encoding="utf-8"?>
<!-- Generator: Adobe Illustrator 16.0.0, SVG Export Plug-In . SVG Version: 6.00 Build 0)  -->
<!DOCTYPE svg PUBLIC "-//W3C//DTD SVG 1.1//EN" "http://www.w3.org/Graphics/SVG/1.1/DTD/svg11.dtd">
<svg version="1.1" id="Layer_1" xmlns="http://www.w3.org/2000/svg" xmlns:xlink="http://www.w3.org/1999/xlink" x="0px" y="0px"
	 width="500px" height="500px" viewBox="0 0 500 500" enable-background="new 0 0 500 500" xml:space="preserve">
<g>
	<rect x="27.418" y="66.449" fill="#F2F2F2" width="444.133" height="364.124"/>
	<path fill="#4D4D4D" d="M474,433.022H24.969V64H474V433.022z M29.867,428.123h439.234V68.898H29.867V428.123z"/>
</g>
<g>
	<rect x="27.418" y="109.72" fill="#4D4D4D" width="444.133" height="4.898"/>
</g>
<g>
	<rect x="29.051" y="349.747" fill="#4D4D4D" width="444.133" height="4.898"/>
</g>
<g>
	<rect x="27.418" y="243.612" fill="#4D4D4D" width="444.133" height="4.899"/>
</g>
<g>
	<rect x="86.2" y="275.453" fill="#F7931E" width="84.908" height="50.618"/>
	<path fill="#4D4D4D" d="M173.557,328.521H83.751v-55.517h89.806V328.521z M88.649,323.622h80.009v-45.72H88.649V323.622z"/>
</g>
<g>
	<rect x="203.765" y="275.453" fill="#F7931E" width="84.908" height="50.618"/>
	<path fill="#4D4D4D" d="M291.122,328.521h-89.807v-55.517h89.807V328.521z M206.214,323.622h80.01v-45.72h-80.01V323.622z"/>
</g>
<g>
	<rect x="321.329" y="275.453" fill="#F7931E" width="84.908" height="50.618"/>
	<path fill="#4D4D4D" d="M408.687,328.521H318.88v-55.517h89.807V328.521z M323.778,323.622h80.01v-45.72h-80.01V323.622z"/>
</g>
<g>
	<rect x="91.099" y="382.404" fill="#4D4D4D" width="329.834" height="4.898"/>
</g>
<g>
	<rect x="91.099" y="400.365" fill="#4D4D4D" width="329.834" height="4.898"/>
</g>
<g>
	<rect x="28.78" y="67.811" fill="#08C5FF" width="441.192" height="43.049"/>
</g>
<g>
	<rect x="47.012" y="90.125" fill="#4D4D4D" width="58.782" height="4.898"/>
</g>
</svg>
