<?xml version="1.0" encoding="utf-8"?>
<!-- Generator: Adobe Illustrator 16.0.0, SVG Export Plug-In . SVG Version: 6.00 Build 0)  -->
<!DOCTYPE svg PUBLIC "-//W3C//DTD SVG 1.1//EN" "http://www.w3.org/Graphics/SVG/1.1/DTD/svg11.dtd">
<svg version="1.1" id="Layer_1" xmlns="http://www.w3.org/2000/svg" xmlns:xlink="http://www.w3.org/1999/xlink" x="0px" y="0px"
	 width="250px" height="250px" viewBox="0 0 250 250" enable-background="new 0 0 250 250" xml:space="preserve">
<g>
	<rect x="8" y="134" fill="#1A1A1A" width="43" height="1"/>
</g>
<g>
	<path fill="#1A1A1A" d="M61.968,140.246v-11.049h1.806v11.049H61.968z"/>
	<path fill="#1A1A1A" d="M82.707,140.246h-2.214l-5.434-8.805h-0.06l0.038,0.491c0.071,0.938,0.106,1.794,0.106,2.569v5.744h-1.64
		v-11.049h2.192l5.418,8.76h0.045c-0.01-0.117-0.03-0.539-0.061-1.267s-0.045-1.296-0.045-1.704v-5.789h1.655V140.246z"/>
	<path fill="#1A1A1A" d="M98.73,129.197h1.875l-3.87,11.049H94.83l-3.854-11.049h1.859l2.305,6.869
		c0.121,0.328,0.25,0.75,0.385,1.267c0.137,0.517,0.225,0.9,0.265,1.152c0.065-0.383,0.166-0.826,0.302-1.33
		c0.136-0.504,0.247-0.877,0.333-1.118L98.73,129.197z"/>
	<path fill="#1A1A1A" d="M115.124,140.246h-6.25v-11.049h6.25v1.526h-4.444v3.009h4.164v1.511h-4.164v3.469h4.444V140.246z"/>
	<path fill="#1A1A1A" d="M133.527,140.246h-2.215l-5.434-8.805h-0.061l0.038,0.491c0.071,0.938,0.106,1.794,0.106,2.569v5.744h-1.64
		v-11.049h2.191l5.419,8.76h0.046c-0.011-0.117-0.031-0.539-0.061-1.267c-0.031-0.728-0.046-1.296-0.046-1.704v-5.789h1.655V140.246
		z"/>
	<path fill="#1A1A1A" d="M147.071,140.246h-1.806v-9.5h-3.25v-1.549h8.306v1.549h-3.25V140.246z"/>
	<path fill="#1A1A1A" d="M168.635,134.707c0,1.799-0.451,3.197-1.35,4.194c-0.899,0.997-2.174,1.496-3.82,1.496
		c-1.668,0-2.949-0.495-3.844-1.485s-1.342-2.396-1.342-4.221s0.451-3.225,1.35-4.202c0.899-0.978,2.184-1.466,3.851-1.466
		c1.643,0,2.912,0.496,3.81,1.488C168.186,131.505,168.635,132.902,168.635,134.707z M160.199,134.707
		c0,1.359,0.275,2.392,0.824,3.094c0.549,0.703,1.363,1.055,2.441,1.055c1.072,0,1.883-0.348,2.43-1.043
		c0.546-0.695,0.819-1.73,0.819-3.105c0-1.355-0.271-2.384-0.812-3.084c-0.543-0.7-1.35-1.051-2.423-1.051
		c-1.083,0-1.9,0.351-2.452,1.051C160.475,132.323,160.199,133.352,160.199,134.707z"/>
	<path fill="#1A1A1A" d="M179.624,135.832v4.414h-1.807v-11.049h3.121c1.427,0,2.481,0.267,3.167,0.801s1.027,1.34,1.027,2.418
		c0,1.377-0.715,2.355-2.146,2.94l3.121,4.89h-2.055l-2.646-4.414H179.624z M179.624,134.336h1.254c0.842,0,1.451-0.156,1.829-0.469
		s0.566-0.775,0.566-1.391c0-0.625-0.203-1.072-0.611-1.345s-1.023-0.408-1.845-0.408h-1.193V134.336z"/>
	<path fill="#1A1A1A" d="M197.642,134.238l2.615-5.041h1.966l-3.682,6.764v4.285h-1.813v-4.225l-3.665-6.824h1.965L197.642,134.238z
		"/>
</g>
<g>
	<path fill="#4D4D4D" d="M19.901,149.026c0.732,0,1.304,0.286,1.718,0.856c0.414,0.57,0.621,1.354,0.621,2.348
		c0,1.023-0.213,1.815-0.64,2.377s-1.008,0.843-1.743,0.843c-0.728,0-1.298-0.265-1.712-0.793h-0.116l-0.283,0.683h-1.292v-8.625
		h1.69v2.006c0,0.256-0.022,0.664-0.066,1.226h0.066C18.54,149.333,19.125,149.026,19.901,149.026z M19.358,150.379
		c-0.417,0-0.722,0.128-0.915,0.385c-0.192,0.258-0.292,0.682-0.299,1.272v0.183c0,0.665,0.099,1.142,0.297,1.43
		c0.197,0.289,0.511,0.433,0.939,0.433c0.348,0,0.624-0.16,0.829-0.479s0.308-0.784,0.308-1.395c0-0.609-0.104-1.066-0.31-1.371
		C19.999,150.531,19.716,150.379,19.358,150.379z"/>
	<path fill="#4D4D4D" d="M35.291,155.34l-0.228-0.793h-0.088c-0.181,0.287-0.438,0.51-0.771,0.668
		c-0.333,0.156-0.711,0.235-1.136,0.235c-0.728,0-1.276-0.194-1.646-0.585s-0.554-0.951-0.554-1.682v-4.041h1.69v3.619
		c0,0.447,0.079,0.782,0.238,1.006c0.159,0.225,0.412,0.336,0.759,0.336c0.473,0,0.814-0.158,1.025-0.475
		c0.21-0.315,0.316-0.84,0.316-1.57v-2.916h1.69v6.197H35.291z"/>
	<path fill="#4D4D4D" d="M44.738,149.143h1.851l1.169,3.486c0.1,0.303,0.168,0.661,0.205,1.075h0.033
		c0.041-0.381,0.12-0.739,0.238-1.075l1.147-3.486h1.812l-2.621,6.988c-0.24,0.647-0.583,1.131-1.028,1.453
		c-0.445,0.32-0.965,0.482-1.56,0.482c-0.292,0-0.578-0.032-0.859-0.095v-1.341c0.203,0.047,0.425,0.071,0.665,0.071
		c0.299,0,0.561-0.091,0.784-0.274c0.223-0.183,0.398-0.459,0.523-0.828l0.1-0.305L44.738,149.143z"/>
	<path fill="#4D4D4D" d="M84.095,153.499c0,0.636-0.221,1.119-0.663,1.452c-0.441,0.332-1.102,0.499-1.981,0.499
		c-0.451,0-0.835-0.03-1.153-0.092c-0.317-0.062-0.615-0.15-0.892-0.269v-1.396c0.314,0.147,0.668,0.271,1.061,0.371
		c0.394,0.1,0.74,0.149,1.04,0.149c0.613,0,0.92-0.177,0.92-0.532c0-0.133-0.041-0.241-0.122-0.324
		c-0.081-0.083-0.222-0.178-0.421-0.283c-0.2-0.104-0.466-0.228-0.798-0.367c-0.477-0.2-0.827-0.385-1.05-0.555
		s-0.386-0.365-0.488-0.585s-0.152-0.49-0.152-0.812c0-0.551,0.214-0.977,0.64-1.277c0.427-0.302,1.032-0.452,1.815-0.452
		c0.746,0,1.472,0.163,2.178,0.487l-0.51,1.22c-0.311-0.133-0.601-0.241-0.87-0.327c-0.27-0.084-0.545-0.127-0.826-0.127
		c-0.499,0-0.748,0.135-0.748,0.404c0,0.151,0.08,0.283,0.241,0.394s0.513,0.274,1.056,0.493c0.484,0.195,0.838,0.379,1.064,0.549
		c0.225,0.17,0.392,0.365,0.499,0.588C84.041,152.928,84.095,153.191,84.095,153.499z"/>
	<path fill="#4D4D4D" d="M95.482,155.45c-0.998,0-1.777-0.276-2.339-0.826s-0.842-1.33-0.842-2.339c0-1.038,0.259-1.841,0.778-2.408
		c0.52-0.566,1.237-0.851,2.153-0.851c0.876,0,1.557,0.249,2.045,0.749c0.488,0.498,0.732,1.188,0.732,2.066v0.82h-3.996
		c0.019,0.48,0.161,0.855,0.427,1.125s0.639,0.404,1.12,0.404c0.373,0,0.726-0.039,1.059-0.115c0.333-0.078,0.68-0.202,1.042-0.372
		v1.308c-0.296,0.148-0.612,0.258-0.948,0.33C96.376,155.414,95.966,155.45,95.482,155.45z M95.244,150.229
		c-0.359,0-0.64,0.114-0.842,0.342c-0.204,0.227-0.32,0.549-0.35,0.967h2.372c-0.007-0.418-0.116-0.74-0.327-0.967
		C95.887,150.343,95.602,150.229,95.244,150.229z"/>
	<path fill="#4D4D4D" d="M108.338,155.34h-1.69v-8.625h1.69V155.34z"/>
	<path fill="#4D4D4D" d="M119.067,155.34h-1.69v-8.625h1.69V155.34z"/>
	<path fill="#4D4D4D" d="M151.047,155.45c-1.929,0-2.894-1.06-2.894-3.177c0-1.053,0.263-1.857,0.787-2.413s1.276-0.834,2.255-0.834
		c0.717,0,1.36,0.141,1.93,0.421l-0.499,1.309c-0.267-0.107-0.514-0.195-0.743-0.264c-0.229-0.068-0.458-0.103-0.688-0.103
		c-0.879,0-1.318,0.624-1.318,1.874c0,1.211,0.439,1.817,1.318,1.817c0.326,0,0.627-0.044,0.904-0.13
		c0.277-0.088,0.555-0.223,0.832-0.408v1.447c-0.273,0.174-0.551,0.293-0.83,0.359C151.823,155.416,151.471,155.45,151.047,155.45z"
		/>
	<path fill="#4D4D4D" d="M167.262,152.23c0,1.008-0.266,1.797-0.799,2.365c-0.531,0.569-1.272,0.854-2.223,0.854
		c-0.594,0-1.119-0.13-1.574-0.392c-0.453-0.26-0.803-0.635-1.047-1.121c-0.244-0.488-0.365-1.058-0.365-1.707
		c0-1.014,0.264-1.801,0.792-2.361c0.528-0.563,1.271-0.843,2.228-0.843c0.596,0,1.12,0.13,1.574,0.388
		c0.455,0.259,0.804,0.63,1.048,1.114C167.139,151.012,167.262,151.58,167.262,152.23z M162.977,152.23
		c0,0.613,0.102,1.076,0.303,1.391s0.529,0.471,0.983,0.471c0.45,0,0.775-0.156,0.973-0.469c0.198-0.312,0.297-0.776,0.297-1.393
		c0-0.614-0.101-1.074-0.3-1.381s-0.526-0.46-0.98-0.46c-0.451,0-0.775,0.153-0.976,0.457
		C163.077,151.152,162.977,151.613,162.977,152.23z"/>
	<path fill="#4D4D4D" d="M181.642,155.34h-1.69v-3.62c0-0.446-0.078-0.782-0.238-1.006c-0.158-0.224-0.412-0.335-0.759-0.335
		c-0.474,0-0.815,0.158-1.025,0.474c-0.211,0.315-0.316,0.839-0.316,1.571v2.916h-1.69v-6.197h1.291l0.229,0.793h0.094
		c0.188-0.299,0.448-0.525,0.779-0.68c0.33-0.152,0.706-0.229,1.127-0.229c0.721,0,1.268,0.194,1.641,0.585
		c0.373,0.39,0.56,0.952,0.56,1.688V155.34z"/>
	<path fill="#4D4D4D" d="M194.969,153.499c0,0.636-0.22,1.119-0.662,1.452c-0.441,0.332-1.102,0.499-1.98,0.499
		c-0.451,0-0.836-0.03-1.152-0.092c-0.318-0.062-0.616-0.15-0.893-0.269v-1.396c0.313,0.147,0.668,0.271,1.061,0.371
		c0.394,0.1,0.74,0.149,1.039,0.149c0.613,0,0.92-0.177,0.92-0.532c0-0.133-0.041-0.241-0.121-0.324
		c-0.082-0.083-0.223-0.178-0.422-0.283c-0.199-0.104-0.465-0.228-0.798-0.367c-0.477-0.2-0.827-0.385-1.05-0.555
		c-0.225-0.17-0.387-0.365-0.488-0.585s-0.152-0.49-0.152-0.812c0-0.551,0.214-0.977,0.641-1.277
		c0.426-0.302,1.031-0.452,1.814-0.452c0.746,0,1.473,0.163,2.178,0.487l-0.51,1.22c-0.311-0.133-0.6-0.241-0.869-0.327
		c-0.271-0.084-0.545-0.127-0.826-0.127c-0.499,0-0.748,0.135-0.748,0.404c0,0.151,0.08,0.283,0.241,0.394
		c0.16,0.11,0.513,0.274,1.056,0.493c0.484,0.195,0.838,0.379,1.063,0.549s0.392,0.365,0.499,0.588
		C194.916,152.928,194.969,153.191,194.969,153.499z"/>
	<path fill="#4D4D4D" d="M203.48,147.541c0-0.551,0.307-0.826,0.92-0.826s0.92,0.275,0.92,0.826c0,0.262-0.076,0.467-0.229,0.612
		c-0.154,0.146-0.385,0.22-0.691,0.22C203.787,148.373,203.48,148.096,203.48,147.541z M205.243,155.34h-1.69v-6.197h1.69V155.34z"
		/>
	<path fill="#4D4D4D" d="M219.674,149.143v0.859l-0.971,0.249c0.178,0.277,0.267,0.588,0.267,0.931c0,0.666-0.231,1.184-0.695,1.555
		s-1.108,0.558-1.932,0.558l-0.305-0.017l-0.249-0.027c-0.174,0.133-0.262,0.28-0.262,0.443c0,0.244,0.311,0.365,0.932,0.365h1.053
		c0.68,0,1.199,0.146,1.555,0.438c0.356,0.292,0.535,0.721,0.535,1.287c0,0.724-0.303,1.285-0.906,1.684
		c-0.604,0.399-1.472,0.6-2.603,0.6c-0.864,0-1.524-0.151-1.981-0.452c-0.455-0.302-0.684-0.724-0.684-1.267
		c0-0.373,0.115-0.686,0.35-0.937c0.232-0.251,0.574-0.431,1.024-0.538c-0.173-0.073-0.325-0.194-0.454-0.363
		c-0.129-0.168-0.193-0.346-0.193-0.534c0-0.237,0.068-0.433,0.204-0.591c0.138-0.156,0.335-0.311,0.593-0.462
		c-0.324-0.141-0.582-0.366-0.773-0.677c-0.189-0.311-0.285-0.676-0.285-1.097c0-0.677,0.221-1.199,0.66-1.569
		c0.439-0.369,1.067-0.554,1.885-0.554c0.173,0,0.379,0.016,0.617,0.047c0.238,0.032,0.391,0.055,0.457,0.069H219.674z
		 M214.891,156.215c0,0.232,0.112,0.416,0.335,0.549c0.224,0.133,0.537,0.199,0.94,0.199c0.605,0,1.08-0.084,1.424-0.25
		s0.516-0.393,0.516-0.682c0-0.232-0.102-0.393-0.306-0.482c-0.202-0.088-0.517-0.133-0.941-0.133h-0.876
		c-0.311,0-0.57,0.074-0.779,0.219C214.995,155.781,214.891,155.975,214.891,156.215z M215.506,151.172
		c0,0.336,0.076,0.602,0.23,0.797c0.153,0.196,0.387,0.295,0.701,0.295c0.317,0,0.55-0.099,0.697-0.295
		c0.148-0.195,0.222-0.461,0.222-0.797c0-0.747-0.306-1.12-0.919-1.12C215.816,150.052,215.506,150.425,215.506,151.172z"/>
	<path fill="#4D4D4D" d="M233.678,155.34h-1.691v-3.62c0-0.446-0.078-0.782-0.238-1.006c-0.158-0.224-0.412-0.335-0.759-0.335
		c-0.474,0-0.815,0.158-1.025,0.474c-0.211,0.315-0.316,0.839-0.316,1.571v2.916h-1.69v-6.197h1.291l0.229,0.793h0.094
		c0.188-0.299,0.448-0.525,0.779-0.68c0.33-0.152,0.706-0.229,1.127-0.229c0.721,0,1.268,0.194,1.641,0.585
		c0.373,0.39,0.561,0.952,0.561,1.688V155.34z"/>
</g>
<g>
	<path fill="#1A1A1A" d="M8,81v41h234V81H8z M138,120H11V83h127V120z"/>
</g>
<g>
	<path fill="#1A1A1A" d="M46.489,91.233l-7.887,21.12h-0.405l-5.721-12.308l-5.778,12.337h-0.375l-7.801-21.149h4.305l4.132,11.586
		l5.374-11.586h0.26l5.374,11.615l4.218-11.615H46.489z"/>
	<path fill="#1A1A1A" d="M67.609,91.204v21.149h-4.045v-8.407h-10.43v8.407h-4.045V91.204h4.045v9.159h10.43v-9.159H67.609z"/>
	<path fill="#1A1A1A" d="M82.083,112.758c-1.502,0-2.918-0.289-4.247-0.867c-1.329-0.578-2.49-1.363-3.481-2.355
		c-0.992-0.992-1.777-2.152-2.355-3.481c-0.578-1.329-0.867-2.754-0.867-4.276c0-1.502,0.289-2.923,0.867-4.262
		c0.578-1.338,1.363-2.503,2.355-3.496c0.992-0.992,2.152-1.777,3.481-2.354c1.329-0.578,2.745-0.867,4.247-0.867
		c1.521,0,2.947,0.289,4.276,0.867c1.329,0.578,2.489,1.363,3.481,2.354c0.992,0.993,1.777,2.158,2.355,3.496
		c0.578,1.339,0.867,2.759,0.867,4.262c0,1.522-0.289,2.947-0.867,4.276c-0.578,1.329-1.363,2.49-2.355,3.481
		c-0.992,0.992-2.152,1.777-3.481,2.355C85.03,112.469,83.605,112.758,82.083,112.758z M82.098,94.584
		c-0.961,0-1.86,0.198-2.696,0.592c-0.836,0.395-1.566,0.92-2.191,1.575c-0.625,0.655-1.12,1.421-1.485,2.297
		c-0.365,0.876-0.547,1.787-0.547,2.73c0,0.963,0.183,1.878,0.547,2.745c0.365,0.867,0.86,1.632,1.485,2.297
		c0.625,0.665,1.355,1.194,2.191,1.589s1.735,0.592,2.696,0.592c0.96,0,1.859-0.197,2.695-0.592s1.566-0.925,2.191-1.589
		c0.625-0.665,1.119-1.43,1.485-2.297c0.365-0.867,0.548-1.781,0.548-2.745c0-0.944-0.183-1.854-0.548-2.73
		c-0.366-0.876-0.86-1.642-1.485-2.297c-0.625-0.655-1.355-1.18-2.191-1.575C83.958,94.782,83.059,94.584,82.098,94.584z"/>
	<path fill="#1A1A1A" d="M111.871,108.771v3.583H96.645V91.204h4.044v17.566H111.871z"/>
	<path fill="#1A1A1A" d="M118.458,94.787v5.287h10.227v3.669h-10.227v4.97h11.528v3.64h-15.573V91.204h15.573v3.583H118.458z"/>
	<path fill="#FFFFFF" d="M162.548,91.204v21.149h-4.046v-8.407h-10.43v8.407h-4.045V91.204h4.045v9.159h10.43v-9.159H162.548z"/>
	<path fill="#FFFFFF" d="M177.022,112.758c-1.503,0-2.919-0.289-4.247-0.867c-1.329-0.578-2.49-1.363-3.482-2.355
		c-0.992-0.992-1.776-2.152-2.354-3.481c-0.578-1.329-0.867-2.754-0.867-4.276c0-1.502,0.289-2.923,0.867-4.262
		c0.577-1.338,1.361-2.503,2.354-3.496c0.992-0.992,2.153-1.777,3.482-2.354c1.328-0.578,2.744-0.867,4.247-0.867
		c1.521,0,2.946,0.289,4.276,0.867c1.328,0.578,2.488,1.363,3.48,2.354c0.992,0.993,1.777,2.158,2.355,3.496
		c0.578,1.339,0.867,2.759,0.867,4.262c0,1.522-0.289,2.947-0.867,4.276s-1.363,2.49-2.355,3.481
		c-0.992,0.992-2.152,1.777-3.48,2.355C179.969,112.469,178.543,112.758,177.022,112.758z M177.037,94.584
		c-0.962,0-1.86,0.198-2.697,0.592c-0.836,0.395-1.565,0.92-2.19,1.575c-0.624,0.655-1.12,1.421-1.485,2.297
		c-0.365,0.876-0.547,1.787-0.547,2.73c0,0.963,0.182,1.878,0.547,2.745s0.861,1.632,1.485,2.297
		c0.625,0.665,1.354,1.194,2.19,1.589c0.837,0.395,1.735,0.592,2.697,0.592c0.961,0,1.859-0.197,2.695-0.592
		s1.566-0.925,2.191-1.589s1.119-1.43,1.484-2.297s0.549-1.781,0.549-2.745c0-0.944-0.184-1.854-0.549-2.73
		c-0.365-0.876-0.859-1.642-1.484-2.297c-0.625-0.655-1.355-1.18-2.191-1.575C178.896,94.782,177.998,94.584,177.037,94.584z"/>
	<path fill="#FFFFFF" d="M212.877,91.233v21.12h-4.045v-10.69l-6.616,7.945l-6.587-7.945v10.69h-4.045v-21.12h0.26l10.372,12.193
		l10.401-12.193H212.877z"/>
	<path fill="#FFFFFF" d="M221.574,94.787v5.287h10.227v3.669h-10.227v4.97h11.527v3.64h-15.572V91.204h15.572v3.583H221.574z"/>
</g>
<g>
	<circle fill="#4D4D4D" cx="65.289" cy="152.583" r="1.453"/>
</g>
<g>
	<circle fill="#4D4D4D" cx="135.192" cy="152.583" r="1.454"/>
</g>
<g>
	<rect x="212" y="134" fill="#1A1A1A" width="30" height="1"/>
</g>
</svg>
